<svg width="20" height="20" viewBox="0 0 20 20" fill="none" xmlns="http://www.w3.org/2000/svg">
<g clip-path="url(#clip0_806_1426)">
<path d="M1.51203 16.3152L2.39406 17.8387C2.57734 18.1594 2.84078 18.4115 3.15008 18.5947C4.03602 17.4702 4.65258 16.6072 5.00008 16.0059C5.35266 15.3957 5.78602 14.4411 6.30016 13.1422C4.91453 12.9598 3.86453 12.8687 3.15016 12.8687C2.46445 12.8687 1.41445 12.9598 0 13.1422C0 13.4973 0.0916406 13.8524 0.274922 14.1732L1.51203 16.3152Z" fill="#0066DA"/>
<path d="M16.85 18.5947C17.1594 18.4115 17.4228 18.1594 17.606 17.8387L17.9726 17.2087L19.7253 14.1732C19.9051 13.8594 19.9999 13.504 20.0001 13.1422C18.5774 12.9598 17.5294 12.8687 16.8558 12.8687C16.1319 12.8687 15.0838 12.9598 13.7114 13.1422C14.2195 14.4482 14.6471 15.4028 14.9944 16.0059C15.3446 16.6144 15.9631 17.4773 16.85 18.5947Z" fill="#EA4335"/>
<path d="M10.0004 6.72742C11.0254 5.48953 11.7318 4.53492 12.1196 3.86375C12.4318 3.32328 12.7755 2.46031 13.1505 1.27492C12.8412 1.09164 12.4861 1 12.1196 1H7.88128C7.51472 1 7.15972 1.10313 6.85034 1.27492C7.32737 2.63445 7.73222 3.60203 8.06472 4.17758C8.43222 4.81367 9.07745 5.66359 10.0004 6.72742Z" fill="#00832D"/>
<path d="M13.6997 13.1421H6.2999L3.1499 18.5946C3.45912 18.7779 3.8142 18.8695 4.18076 18.8695H15.8189C16.1854 18.8695 16.5406 18.7664 16.8498 18.5945L13.6998 13.1421H13.6997Z" fill="#2684FC"/>
<path d="M10.0001 6.72732L6.85008 1.2749C6.5407 1.45818 6.27727 1.71014 6.09398 2.03092L0.274922 12.1112C0.0950098 12.425 0.000237693 12.7804 0 13.1421H6.30016L10.0002 6.72732H10.0001Z" fill="#00AC47"/>
<path d="M16.8161 7.07107L13.9065 2.03092C13.7233 1.71014 13.4598 1.45818 13.1505 1.2749L10.0005 6.7274L13.7003 13.1422H19.9891C19.9891 12.787 19.8974 12.432 19.7142 12.1112L16.8161 7.07107Z" fill="#FFBA00"/>
</g>
<defs>
<clipPath id="clip0_806_1426">
<rect width="20" height="20" fill="white"/>
</clipPath>
</defs>
</svg>
