<svg width="24" height="24" viewBox="0 0 24 24" fill="none" xmlns="http://www.w3.org/2000/svg">
<path d="M4 10.9998H10C10.2652 10.9998 10.5196 10.8944 10.7071 10.7069C10.8946 10.5193 11 10.265 11 9.99978V3.99978C11 3.73456 10.8946 3.4802 10.7071 3.29267C10.5196 3.10513 10.2652 2.99978 10 2.99978H4C3.73478 2.99978 3.48043 3.10513 3.29289 3.29267C3.10536 3.4802 3 3.73456 3 3.99978V9.99978C3 10.265 3.10536 10.5193 3.29289 10.7069C3.48043 10.8944 3.73478 10.9998 4 10.9998ZM4 20.9998H10C10.2652 20.9998 10.5196 20.8944 10.7071 20.7069C10.8946 20.5193 11 20.265 11 19.9998V13.9998C11 13.7346 10.8946 13.4802 10.7071 13.2927C10.5196 13.1051 10.2652 12.9998 10 12.9998H4C3.73478 12.9998 3.48043 13.1051 3.29289 13.2927C3.10536 13.4802 3 13.7346 3 13.9998V19.9998C3 20.265 3.10536 20.5193 3.29289 20.7069C3.48043 20.8944 3.73478 20.9998 4 20.9998ZM14 20.9998H20C20.2652 20.9998 20.5196 20.8944 20.7071 20.7069C20.8946 20.5193 21 20.265 21 19.9998V13.9998C21 13.7346 20.8946 13.4802 20.7071 13.2927C20.5196 13.1051 20.2652 12.9998 20 12.9998H14C13.7348 12.9998 13.4804 13.1051 13.2929 13.2927C13.1054 13.4802 13 13.7346 13 13.9998V19.9998C13 20.265 13.1054 20.5193 13.2929 20.7069C13.4804 20.8944 13.7348 20.9998 14 20.9998ZM21.293 6.29278L17.707 2.70678C17.6142 2.61383 17.504 2.54009 17.3827 2.48978C17.2614 2.43947 17.1313 2.41357 17 2.41357C16.8687 2.41357 16.7386 2.43947 16.6173 2.48978C16.496 2.54009 16.3858 2.61383 16.293 2.70678L12.707 6.29278C12.6141 6.38556 12.5403 6.49577 12.49 6.61708C12.4397 6.7384 12.4138 6.86844 12.4138 6.99978C12.4138 7.13111 12.4397 7.26115 12.49 7.38247C12.5403 7.50378 12.6141 7.61399 12.707 7.70678L16.293 11.2928C16.3858 11.3857 16.496 11.4595 16.6173 11.5098C16.7386 11.5601 16.8687 11.586 17 11.586C17.1313 11.586 17.2614 11.5601 17.3827 11.5098C17.504 11.4595 17.6142 11.3857 17.707 11.2928L21.293 7.70678C21.3859 7.61399 21.4597 7.50378 21.51 7.38247C21.5603 7.26115 21.5862 7.13111 21.5862 6.99978C21.5862 6.86844 21.5603 6.7384 21.51 6.61708C21.4597 6.49577 21.3859 6.38556 21.293 6.29278Z" fill="#E4E5EA"/>
</svg>
